<svg width="25" height="24" viewBox="0 0 25 24" fill="none" xmlns="http://www.w3.org/2000/svg">
<path fill-rule="evenodd" clip-rule="evenodd" d="M4.5 4C3.94772 4 3.5 4.44772 3.5 5V6.34315C3.5 7.66923 4.02678 8.941 4.96447 9.87868L6.5 11.4142V16C6.5 16.5523 6.94772 17 7.5 17H11.5C12.0523 17 12.5 16.5523 12.5 16V11.4142L14.0355 9.87868C14.9732 8.941 15.5 7.66923 15.5 6.34315V5C15.5 4.44772 15.0523 4 14.5 4H4.5ZM5.5 6.34315V6H13.5V6.34315C13.5 7.13879 13.1839 7.90186 12.6213 8.46447L10.7929 10.2929C10.6054 10.4804 10.5 10.7348 10.5 11V15H8.5V11C8.5 10.7348 8.39464 10.4804 8.20711 10.2929L6.37868 8.46447C5.81607 7.90186 5.5 7.1388 5.5 6.34315ZM18.2071 20.7071L21.2071 17.7071C21.4931 17.4211 21.5787 16.991 21.4239 16.6173C21.2691 16.2436 20.9045 16 20.5 16H14.5C14.0956 16 13.7309 16.2436 13.5761 16.6173C13.4214 16.991 13.5069 17.4211 13.7929 17.7071L15.2929 19.2071L16.7929 20.7071C17.1834 21.0976 17.8166 21.0976 18.2071 20.7071Z" fill="#4B5566"/>
</svg>
