<svg width="25" height="24" viewBox="0 0 25 24" fill="none" xmlns="http://www.w3.org/2000/svg">
<g id="Icon">
<g id="Vector">
<path fill-rule="evenodd" clip-rule="evenodd" d="M5.5 17C4.95 17 4.47933 16.8043 4.088 16.413C3.69667 16.0217 3.50067 15.5507 3.5 15V5C3.5 4.45 3.696 3.97933 4.088 3.588C4.48 3.19667 4.95067 3.00067 5.5 3H19.5C20.05 3 20.521 3.196 20.913 3.588C21.305 3.98 21.5007 4.45067 21.5 5V15C21.5 15.55 21.3043 16.021 20.913 16.413C20.5217 16.805 20.0507 17.0007 19.5 17H5.5ZM19.5 15H5.5V12H8.5C9.00133 12.6333 9.59733 13.125 10.288 13.475C10.9787 13.825 11.716 14 12.5 14C13.284 14 14.0217 13.825 14.713 13.475C15.4043 13.125 16 12.6333 16.5 12H19.5V15ZM13.975 11.587C13.525 11.8623 13.0333 12 12.5 12C11.9667 12.0007 11.475 11.8633 11.025 11.588C10.575 11.3127 10.2083 10.95 9.925 10.5C9.825 10.3507 9.7 10.23 9.55 10.138C9.4 10.046 9.23333 10 9.05 10H5.5V5H19.5V10H15.95C15.7667 9.99933 15.6 10.045 15.45 10.137C15.3 10.229 15.175 10.35 15.075 10.5C14.7917 10.9493 14.425 11.3117 13.975 11.587Z" fill="#333D48"/>
<path d="M6.5 19H18.5C19.0523 19 19.5 19.4477 19.5 20C19.5 20.5523 19.0523 21 18.5 21H6.5C5.94772 21 5.5 20.5523 5.5 20C5.5 19.4477 5.94772 19 6.5 19Z" fill="#333D48"/>
</g>
</g>
</svg>
