<svg width="25" height="24" viewBox="0 0 25 24" fill="none" xmlns="http://www.w3.org/2000/svg">
<g id="Icon">
<g id="Vector">
<path fill-rule="evenodd" clip-rule="evenodd" d="M13.0278 3H5.5C4.95067 3.00067 4.48 3.19667 4.088 3.588C3.696 3.97933 3.5 4.45 3.5 5V19C3.50067 19.5507 3.69667 20.0217 4.088 20.413C4.47933 20.8043 4.95 21 5.5 21H19.5C20.0507 21.0007 20.5217 20.805 20.913 20.413C21.3043 20.021 21.5 19.55 21.5 19V11.4722C20.9229 11.9887 20.2452 12.3952 19.5 12.6586V14H15.95C15.7667 13.9993 15.6 14.045 15.45 14.137C15.3 14.229 15.175 14.35 15.075 14.5C14.7917 14.9493 14.425 15.3117 13.975 15.587C13.525 15.8623 13.0333 16 12.5 16C11.9667 16.0007 11.475 15.8633 11.025 15.588C10.575 15.3127 10.2083 14.95 9.925 14.5C9.825 14.3507 9.7 14.23 9.55 14.138C9.4 14.046 9.23333 14 9.05 14H5.5V5H11.8414C12.1048 4.25476 12.5113 3.5771 13.0278 3ZM19.5 19V16H16.5C16 16.6333 15.4043 17.125 14.713 17.475C14.0217 17.825 13.284 18 12.5 18C11.716 18 10.9787 17.825 10.288 17.475C9.59733 17.125 9.00133 16.6333 8.5 16H5.5V19H19.5Z" fill="#626E7C"/>
<path d="M16.4961 3.85491L20.4806 6.13173C21.1524 6.51563 21.1524 7.48433 20.4806 7.86822L16.4961 10.145C15.8295 10.526 15 10.0446 15 9.2768V4.72316C15 3.95533 15.8295 3.47397 16.4961 3.85491Z" fill="#626E7C"/>
</g>
</g>
</svg>
