<svg width="25" height="24" viewBox="0 0 25 24" fill="none" xmlns="http://www.w3.org/2000/svg">
<g id="Icon">
<g id="Vector">
<path d="M8.5 16C8.5 16.5523 8.94772 17 9.5 17H15.5C16.0523 17 16.5 16.5523 16.5 16C16.5 15.4477 16.0523 15 15.5 15H9.5C8.94772 15 8.5 15.4477 8.5 16Z" fill="#626E7C"/>
<path fill-rule="evenodd" clip-rule="evenodd" d="M5.5 21C4.95 21 4.47933 20.8043 4.088 20.413C3.69667 20.0217 3.50067 19.5507 3.5 19V6.52501C3.5 6.29167 3.53767 6.06667 3.613 5.85001C3.68833 5.63334 3.80067 5.43334 3.95 5.25001L5.2 3.72501C5.38333 3.49167 5.61233 3.31234 5.887 3.18701C6.16167 3.06167 6.44933 2.99934 6.75 3.00001H18.25C18.55 3.00001 18.8377 3.06267 19.113 3.18801C19.3883 3.31334 19.6173 3.49234 19.8 3.72501L21.05 5.25001C21.2 5.43334 21.3127 5.63334 21.388 5.85001C21.4633 6.06667 21.5007 6.29167 21.5 6.52501V19C21.5 19.55 21.3043 20.021 20.913 20.413C20.5217 20.805 20.0507 21.0007 19.5 21H5.5ZM5.5 8.00001V19H19.5V8.00001L16.5 8C16 8.63333 15.4043 9.125 14.713 9.475C14.0217 9.825 13.284 10 12.5 10C11.716 10 10.9787 9.825 10.288 9.475C9.59733 9.125 9.00133 8.63333 8.5 8L5.5 8.00001ZM9.5 17C8.94772 17 8.5 16.5523 8.5 16C8.5 15.4477 8.94772 15 9.5 15H15.5C16.0523 15 16.5 15.4477 16.5 16C16.5 16.5523 16.0523 17 15.5 17H9.5ZM18.25 5.00001L19.1 6.00001L15.95 6C15.7667 5.99933 15.6 6.045 15.45 6.137C15.3 6.229 15.175 6.35 15.075 6.5C14.7917 6.94933 14.425 7.31167 13.975 7.587C13.525 7.86233 13.0333 8 12.5 8C11.9667 8.00067 11.475 7.86333 11.025 7.588C10.575 7.31267 10.2083 6.95 9.925 6.5C9.825 6.35067 9.7 6.23 9.55 6.138C9.4 6.046 9.23333 6 9.05 6L5.9 6.00001L6.75 5.00001H18.25Z" fill="#626E7C"/>
</g>
</g>
</svg>
