<svg width="24" height="24" viewBox="0 0 24 24" fill="none" xmlns="http://www.w3.org/2000/svg">
<path fill-rule="evenodd" clip-rule="evenodd" d="M6.06189 13H5C3.34315 13 2 11.6569 2 10V7.5C2 4.46243 4.46243 2 7.5 2C10.049 2 12.1931 3.73407 12.8168 6.0869C13.2029 6.02966 13.598 6 14 6C18.4183 6 22 9.58172 22 14V18.2857C22 20.3371 20.3371 22 18.2857 22H14C9.58172 22 6 18.4183 6 14C6 13.6613 6.02104 13.3276 6.06189 13ZM6.58152 11H5C4.44772 11 4 10.5523 4 10V7.5C4 5.567 5.567 4 7.5 4C9.13155 4 10.5024 5.11637 10.8902 6.62691C8.93621 7.45207 7.37841 9.03133 6.58152 11ZM8 14C8 17.3137 10.6863 20 14 20H18.2857C19.2325 20 20 19.2325 20 18.2857V14C20 10.6863 17.3137 8 14 8C10.6863 8 8 10.6863 8 14ZM11 12C11 11.4477 11.4477 11 12 11H16C16.5523 11 17 11.4477 17 12C17 12.5523 16.5523 13 16 13H12C11.4477 13 11 12.5523 11 12ZM12 15C11.4477 15 11 15.4477 11 16C11 16.5523 11.4477 17 12 17H14C14.5523 17 15 16.5523 15 16C15 15.4477 14.5523 15 14 15H12Z" fill="#4B5566"/>
</svg>
