<svg width="24" height="24" viewBox="0 0 24 24" fill="none" xmlns="http://www.w3.org/2000/svg">
<g id="Icon">
<g id="Vector">
<path fill-rule="evenodd" clip-rule="evenodd" d="M8.175 10.825C8.95833 11.6083 9.9 12 11 12C12.1 12 13.0417 11.6083 13.825 10.825C14.6083 10.0417 15 9.1 15 8C15 6.9 14.6083 5.95833 13.825 5.175C13.0417 4.39167 12.1 4 11 4C9.9 4 8.95833 4.39167 8.175 5.175C7.39167 5.95833 7 6.9 7 8C7 9.1 7.39167 10.0417 8.175 10.825ZM12.413 9.413C12.021 9.80433 11.55 10 11 10C10.4527 10.0027 9.982 9.807 9.588 9.413C9.194 9.019 8.998 8.548 9 8C9.002 7.452 9.198 6.98133 9.588 6.588C9.978 6.19467 10.4487 5.99867 11 6C11.5513 6.00133 12.0223 6.19733 12.413 6.588C12.8037 6.97867 12.9993 7.44933 13 8C13.0007 8.55067 12.805 9.02167 12.413 9.413Z" fill="#626E7C"/>
<path d="M3 17.2V18C3.00067 18.5507 3.19667 19.0217 3.588 19.413C3.97933 19.8043 4.45 20 5 20H11.8027C11.4513 19.3926 11.2034 18.7179 11.083 18H5V17.2C4.99933 17.0167 5.045 16.85 5.137 16.7C5.229 16.55 5.35 16.4333 5.5 16.35C6.4 15.9013 7.30833 15.564 8.225 15.338C9.14167 15.112 10.0667 14.9993 11 15C11.1133 15.0001 11.2265 15.0018 11.3396 15.0052C11.5914 14.2906 11.9747 13.6381 12.4604 13.0765C11.9769 13.0252 11.4901 12.9997 11 13C9.9 13.0007 8.81667 13.13 7.75 13.388C6.68333 13.646 5.63333 14.0333 4.6 14.55C4.11733 14.8007 3.73 15.1633 3.438 15.638C3.146 16.1127 3 16.6333 3 17.2Z" fill="#626E7C"/>
<path d="M16.288 13.288C16.4793 13.096 16.7167 13 17 13C17.2847 12.9987 17.522 13.0943 17.712 13.287C17.902 13.4797 17.998 13.7173 18 14C18.002 14.2827 17.9063 14.52 17.713 14.712C17.5197 14.904 17.282 15 17 15C16.718 15 16.4807 14.904 16.288 14.712C16.0953 14.52 15.9993 14.2827 16 14C16.0007 13.7173 16.0967 13.48 16.288 13.288Z" fill="#626E7C"/>
<path d="M16.288 16.288C16.4793 16.096 16.7167 16 17 16C17.2827 15.9993 17.52 16.095 17.712 16.287C17.904 16.479 18 16.7167 18 17V20C18.0013 20.282 17.9057 20.5193 17.713 20.712C17.5203 20.9047 17.2827 21.0007 17 21C16.7173 20.9993 16.48 20.9033 16.288 20.712C16.096 20.5207 16 20.2833 16 20V17C16.0007 16.7173 16.0967 16.48 16.288 16.288Z" fill="#626E7C"/>
</g>
</g>
</svg>
