<svg width="24" height="24" viewBox="0 0 24 24" fill="none" xmlns="http://www.w3.org/2000/svg">
<path d="M6 22C5.16667 22 4.45833 21.7083 3.875 21.125C3.29167 20.5417 3 19.8333 3 19V17C3 16.7167 3.096 16.4793 3.288 16.288C3.48 16.0967 3.71733 16.0007 4 16H6V2.60001C6 2.48335 6.05 2.40401 6.15 2.36201C6.25 2.32001 6.34167 2.34101 6.425 2.42501L7.15 3.15001C7.25 3.25001 7.36667 3.30001 7.5 3.30001C7.63333 3.30001 7.75 3.25001 7.85 3.15001L8.65 2.35001C8.75 2.25001 8.86667 2.20001 9 2.20001C9.13333 2.20001 9.25 2.25001 9.35 2.35001L10.15 3.15001C10.25 3.25001 10.3667 3.30001 10.5 3.30001C10.6333 3.30001 10.75 3.25001 10.85 3.15001L11.65 2.35001C11.75 2.25001 11.8667 2.20001 12 2.20001C12.1333 2.20001 12.25 2.25001 12.35 2.35001L13.15 3.15001C13.25 3.25001 13.3667 3.30001 13.5 3.30001C13.6333 3.30001 13.75 3.25001 13.85 3.15001L14.65 2.35001C14.75 2.25001 14.8667 2.20001 15 2.20001C15.1333 2.20001 15.25 2.25001 15.35 2.35001L16.15 3.15001C16.25 3.25001 16.3667 3.30001 16.5 3.30001C16.6333 3.30001 16.75 3.25001 16.85 3.15001L17.65 2.35001C17.75 2.25001 17.8667 2.20001 18 2.20001C18.1333 2.20001 18.25 2.25001 18.35 2.35001L19.15 3.15001C19.25 3.25001 19.3667 3.30001 19.5 3.30001C19.6333 3.30001 19.75 3.25001 19.85 3.15001L20.575 2.42501C20.6583 2.34168 20.75 2.32068 20.85 2.36201C20.95 2.40335 21 2.48268 21 2.60001V19C21 19.8333 20.7083 20.5417 20.125 21.125C19.5417 21.7083 18.8333 22 18 22H6ZM18 20C18.2833 20 18.521 19.904 18.713 19.712C18.905 19.52 19.0007 19.2827 19 19V5.00001H8V16H16C16.2833 16 16.521 16.096 16.713 16.288C16.905 16.48 17.0007 16.7173 17 17V19C17 19.2833 17.096 19.521 17.288 19.713C17.48 19.905 17.7173 20.0007 18 20ZM10 7.00001H14C14.2833 7.00001 14.521 7.09601 14.713 7.28801C14.905 7.48001 15.0007 7.71735 15 8.00001C14.9993 8.28268 14.9033 8.52035 14.712 8.71301C14.5207 8.90568 14.2833 9.00135 14 9.00001H10C9.71667 9.00001 9.47933 8.90401 9.288 8.71201C9.09667 8.52001 9.00067 8.28268 9 8.00001C8.99933 7.71735 9.09533 7.48001 9.288 7.28801C9.48067 7.09601 9.718 7.00001 10 7.00001ZM10 10H14C14.2833 10 14.521 10.096 14.713 10.288C14.905 10.48 15.0007 10.7173 15 11C14.9993 11.2827 14.9033 11.5203 14.712 11.713C14.5207 11.9057 14.2833 12.0013 14 12H10C9.71667 12 9.47933 11.904 9.288 11.712C9.09667 11.52 9.00067 11.2827 9 11C8.99933 10.7173 9.09533 10.48 9.288 10.288C9.48067 10.096 9.718 10 10 10ZM17 9.00001C16.7167 9.00001 16.4793 8.90401 16.288 8.71201C16.0967 8.52001 16.0007 8.28268 16 8.00001C15.9993 7.71735 16.0953 7.48001 16.288 7.28801C16.4807 7.09601 16.718 7.00001 17 7.00001C17.282 7.00001 17.5197 7.09601 17.713 7.28801C17.9063 7.48001 18.002 7.71735 18 8.00001C17.998 8.28268 17.902 8.52035 17.712 8.71301C17.522 8.90568 17.2847 9.00135 17 9.00001ZM17 12C16.7167 12 16.4793 11.904 16.288 11.712C16.0967 11.52 16.0007 11.2827 16 11C15.9993 10.7173 16.0953 10.48 16.288 10.288C16.4807 10.096 16.718 10 17 10C17.282 10 17.5197 10.096 17.713 10.288C17.9063 10.48 18.002 10.7173 18 11C17.998 11.2827 17.902 11.5203 17.712 11.713C17.522 11.9057 17.2847 12.0013 17 12Z" fill="#4B5566"/>
</svg>
