<svg width="40" height="40" viewBox="0 0 40 40" fill="none" xmlns="http://www.w3.org/2000/svg">
<path d="M17.5 24C15.6833 24 14.146 23.3707 12.888 22.112C11.63 20.8533 11.0007 19.316 11 17.5C10.9993 15.684 11.6287 14.1467 12.888 12.888C14.1473 11.6293 15.6847 11 17.5 11C19.3153 11 20.853 11.6293 22.113 12.888C23.373 14.1467 24.002 15.684 24 17.5C24 18.2333 23.8833 18.925 23.65 19.575C23.4167 20.225 23.1 20.8 22.7 21.3L28.3 26.9C28.4833 27.0833 28.575 27.3167 28.575 27.6C28.575 27.8833 28.4833 28.1167 28.3 28.3C28.1167 28.4833 27.8833 28.575 27.6 28.575C27.3167 28.575 27.0833 28.4833 26.9 28.3L21.3 22.7C20.8 23.1 20.225 23.4167 19.575 23.65C18.925 23.8833 18.2333 24 17.5 24ZM17.5 22C18.75 22 19.8127 21.5627 20.688 20.688C21.5633 19.8133 22.0007 18.7507 22 17.5C21.9993 16.2493 21.562 15.187 20.688 14.313C19.814 13.439 18.7513 13.0013 17.5 13C16.2487 12.9987 15.1863 13.4363 14.313 14.313C13.4397 15.1897 13.002 16.252 13 17.5C12.998 18.748 13.4357 19.8107 14.313 20.688C15.1903 21.5653 16.2527 22.0027 17.5 22Z" fill="#4B5566"/>
</svg>
