<svg width="20" height="20" viewBox="0 0 20 20" fill="none" xmlns="http://www.w3.org/2000/svg">
<path d="M7.49699 3.34937C8.68248 1.55021 11.3217 1.55021 12.5071 3.34937L12.9222 3.97935L13.7338 3.91585C15.8351 3.75143 17.4464 5.74823 16.8417 7.76738L16.5636 8.69589L17.2333 9.4402C18.6255 10.9875 18.0575 13.4476 16.128 14.2279L15.264 14.5773L15.1407 15.4273C14.8333 17.5454 12.4704 18.6696 10.6331 17.5718L10.0021 17.1948L9.37104 17.5718C7.53371 18.6696 5.17083 17.5454 4.86344 15.4273L4.74009 14.5773L3.87618 14.2279C1.94666 13.4476 1.37868 10.9875 2.7708 9.4402L3.44048 8.69589L3.16241 7.76738C2.55772 5.74823 4.16899 3.75143 6.27032 3.91585L7.08189 3.97935L7.49699 3.34937Z" fill="#78A0D2"/>
<path d="M7.5 10.4996L9 11.9996L12 8.99963" stroke="white" stroke-width="2" stroke-linecap="round" stroke-linejoin="round"/>
</svg>
